<svg width="64" height="64" viewBox="0 0 64 64" fill="none" xmlns="http://www.w3.org/2000/svg">
<g opacity="0.9">
<rect width="64" height="64" rx="32" fill="white"/>
<circle cx="32" cy="32" r="31" fill="#D0C29D" stroke="#322D2D" stroke-width="2"/>
<circle cx="32" cy="32" r="22" fill="#D0C29D" stroke="#322D2D" stroke-width="4"/>
<path d="M21.2667 24.0667L26.1667 27.3333L31.0503 20.4967C31.1582 20.3454 31.3007 20.2222 31.4659 20.1371C31.6311 20.052 31.8142 20.0077 32 20.0077C32.1858 20.0077 32.3689 20.052 32.5341 20.1371C32.6993 20.2222 32.8417 20.3454 32.9497 20.4967L37.8333 27.3333L42.7333 24.0667C42.9188 23.9433 43.1357 23.8756 43.3584 23.8715C43.5811 23.8675 43.8003 23.9273 43.9901 24.0438C44.1799 24.1604 44.3324 24.3288 44.4295 24.5293C44.5266 24.7297 44.5643 24.9538 44.5382 25.175L42.6213 41.4698C42.5879 41.7536 42.4515 42.0153 42.2379 42.2052C42.0244 42.3951 41.7486 42.5 41.4628 42.5H22.5372C22.2514 42.5 21.9756 42.3951 21.7621 42.2052C21.5485 42.0153 21.4121 41.7536 21.3787 41.4698L19.4618 25.1738C19.4359 24.9527 19.4738 24.7288 19.5711 24.5286C19.6683 24.3283 19.8208 24.16 20.0105 24.0436C20.2003 23.9272 20.4194 23.8675 20.642 23.8716C20.8645 23.8757 21.0813 23.9434 21.2667 24.0667ZM32 35.5C32.6188 35.5 33.2123 35.2542 33.6499 34.8166C34.0875 34.379 34.3333 33.7855 34.3333 33.1667C34.3333 32.5478 34.0875 31.9543 33.6499 31.5168C33.2123 31.0792 32.6188 30.8333 32 30.8333C31.3812 30.8333 30.7877 31.0792 30.3501 31.5168C29.9125 31.9543 29.6667 32.5478 29.6667 33.1667C29.6667 33.7855 29.9125 34.379 30.3501 34.8166C30.7877 35.2542 31.3812 35.5 32 35.5Z" fill="#322D2D"/>
</g>
</svg>
